#N canvas 0 0 700 1400 10;
#X obj 0 0 cnv 5 250 5 empty empty empty 0 -8 0 10 -261689 -1 0;
#N canvas 0 0 450 300 GOP_INIT 0;
#X obj 50 50 loadbang;
#X obj 50 80 t b b b;
#X msg 50 120 \; to_sc /brahma/module/create \$1 \$2 0;
#X msg 180 120 \; to_sc /pd/modules/params \$1;
#X obj 310 120 1;
#X msg 310 150 \; \$0-status 1;
#X connect 0 0 1 0;
#X connect 1 0 2 0;
#X connect 1 1 3 0;
#X connect 1 2 4 0;
#X connect 4 0 5 0;
#X restore 400 50 pd GOP_INIT;
#X obj 0 8 cnv 15 240 22 empty \$0-modname \$1 4 11 0 14 -233017 -66577 0;
#X obj 0 32 cnv 15 120 14 empty \$0-instname \$2 2 9 0 10 -233017 -66577 0;
#X obj 130 32 tgl 15 0 \$0-status \$0-status empty 0 -8 0 10 -262144 -1 -1 0 1;
#X obj 0 48 cnv 12 250 320 empty empty empty 0 -8 0 10 -4034 -1 0;
#N canvas 0 0 900 700 SLOT_0 0;
#X obj 50 50 r \$0-paramcfg-0;
#X obj 50 80 unpack s f f f;
#X obj 50 120 s \$0-pname0;
#X obj 150 120 f;
#X obj 220 120 f;
#X obj 290 120 f;
#X obj 400 50 r \$0-slider0;
#X obj 400 80 t f f;
#X obj 400 120 expr $f1 * ($f3 - $f2) + $f2;
#X obj 400 160 s \$0-nbx0;
#X obj 400 200 pack s f;
#X obj 400 240 list prepend \$2;
#X obj 400 270 list prepend \$1;
#X obj 400 300 list prepend /brahma/module/set;
#X obj 400 330 s to_sc;
#X obj 50 160 t s b;
#X msg 120 190 label \$1;
#X obj 120 220 s \$0-label0;
#X obj 50 250 expr ($f1 - $f2) / ($f3 - $f2 + 0.0001);
#X obj 50 280 s \$0-slider0;
#X obj 50 200 r \$0-pname0;
#X connect 0 0 1 0;
#X connect 1 0 15 0;
#X connect 1 1 5 0;
#X connect 1 1 18 0;
#X connect 1 2 3 0;
#X connect 1 2 8 1;
#X connect 1 3 4 0;
#X connect 1 3 8 2;
#X connect 6 0 7 0;
#X connect 7 0 8 0;
#X connect 7 1 9 0;
#X connect 8 0 10 1;
#X connect 10 0 11 0;
#X connect 11 0 12 0;
#X connect 12 0 13 0;
#X connect 13 0 14 0;
#X connect 15 0 2 0;
#X connect 15 1 16 0;
#X connect 16 0 17 0;
#X connect 18 0 19 0;
#X connect 20 0 10 0;
#X restore 400 100 pd SLOT_0;
#N canvas 0 0 900 700 SLOT_1 0;
#X obj 50 50 r \$0-paramcfg-1;
#X obj 50 80 unpack s f f f;
#X obj 50 120 s \$0-pname1;
#X obj 150 120 f;
#X obj 220 120 f;
#X obj 290 120 f;
#X obj 400 50 r \$0-slider1;
#X obj 400 80 t f f;
#X obj 400 120 expr $f1 * ($f3 - $f2) + $f2;
#X obj 400 160 s \$0-nbx1;
#X obj 400 200 pack s f;
#X obj 400 240 list prepend \$2;
#X obj 400 270 list prepend \$1;
#X obj 400 300 list prepend /brahma/module/set;
#X obj 400 330 s to_sc;
#X obj 50 160 t s b;
#X msg 120 190 label \$1;
#X obj 120 220 s \$0-label1;
#X obj 50 250 expr ($f1 - $f2) / ($f3 - $f2 + 0.0001);
#X obj 50 280 s \$0-slider1;
#X obj 50 200 r \$0-pname1;
#X connect 0 0 1 0;
#X connect 1 0 15 0;
#X connect 1 1 5 0;
#X connect 1 1 18 0;
#X connect 1 2 3 0;
#X connect 1 2 8 1;
#X connect 1 3 4 0;
#X connect 1 3 8 2;
#X connect 6 0 7 0;
#X connect 7 0 8 0;
#X connect 7 1 9 0;
#X connect 8 0 10 1;
#X connect 10 0 11 0;
#X connect 11 0 12 0;
#X connect 12 0 13 0;
#X connect 13 0 14 0;
#X connect 15 0 2 0;
#X connect 15 1 16 0;
#X connect 16 0 17 0;
#X connect 18 0 19 0;
#X connect 20 0 10 0;
#X restore 400 130 pd SLOT_1;
#N canvas 0 0 900 700 SLOT_2 0;
#X obj 50 50 r \$0-paramcfg-2;
#X obj 50 80 unpack s f f f;
#X obj 50 120 s \$0-pname2;
#X obj 150 120 f;
#X obj 220 120 f;
#X obj 290 120 f;
#X obj 400 50 r \$0-slider2;
#X obj 400 80 t f f;
#X obj 400 120 expr $f1 * ($f3 - $f2) + $f2;
#X obj 400 160 s \$0-nbx2;
#X obj 400 200 pack s f;
#X obj 400 240 list prepend \$2;
#X obj 400 270 list prepend \$1;
#X obj 400 300 list prepend /brahma/module/set;
#X obj 400 330 s to_sc;
#X obj 50 160 t s b;
#X msg 120 190 label \$1;
#X obj 120 220 s \$0-label2;
#X obj 50 250 expr ($f1 - $f2) / ($f3 - $f2 + 0.0001);
#X obj 50 280 s \$0-slider2;
#X obj 50 200 r \$0-pname2;
#X connect 0 0 1 0;
#X connect 1 0 15 0;
#X connect 1 1 5 0;
#X connect 1 1 18 0;
#X connect 1 2 3 0;
#X connect 1 2 8 1;
#X connect 1 3 4 0;
#X connect 1 3 8 2;
#X connect 6 0 7 0;
#X connect 7 0 8 0;
#X connect 7 1 9 0;
#X connect 8 0 10 1;
#X connect 10 0 11 0;
#X connect 11 0 12 0;
#X connect 12 0 13 0;
#X connect 13 0 14 0;
#X connect 15 0 2 0;
#X connect 15 1 16 0;
#X connect 16 0 17 0;
#X connect 18 0 19 0;
#X connect 20 0 10 0;
#X restore 400 160 pd SLOT_2;
#N canvas 0 0 900 700 SLOT_3 0;
#X obj 50 50 r \$0-paramcfg-3;
#X obj 50 80 unpack s f f f;
#X obj 50 120 s \$0-pname3;
#X obj 150 120 f;
#X obj 220 120 f;
#X obj 290 120 f;
#X obj 400 50 r \$0-slider3;
#X obj 400 80 t f f;
#X obj 400 120 expr $f1 * ($f3 - $f2) + $f2;
#X obj 400 160 s \$0-nbx3;
#X obj 400 200 pack s f;
#X obj 400 240 list prepend \$2;
#X obj 400 270 list prepend \$1;
#X obj 400 300 list prepend /brahma/module/set;
#X obj 400 330 s to_sc;
#X obj 50 160 t s b;
#X msg 120 190 label \$1;
#X obj 120 220 s \$0-label3;
#X obj 50 250 expr ($f1 - $f2) / ($f3 - $f2 + 0.0001);
#X obj 50 280 s \$0-slider3;
#X obj 50 200 r \$0-pname3;
#X connect 0 0 1 0;
#X connect 1 0 15 0;
#X connect 1 1 5 0;
#X connect 1 1 18 0;
#X connect 1 2 3 0;
#X connect 1 2 8 1;
#X connect 1 3 4 0;
#X connect 1 3 8 2;
#X connect 6 0 7 0;
#X connect 7 0 8 0;
#X connect 7 1 9 0;
#X connect 8 0 10 1;
#X connect 10 0 11 0;
#X connect 11 0 12 0;
#X connect 12 0 13 0;
#X connect 13 0 14 0;
#X connect 15 0 2 0;
#X connect 15 1 16 0;
#X connect 16 0 17 0;
#X connect 18 0 19 0;
#X connect 20 0 10 0;
#X restore 400 190 pd SLOT_3;
#N canvas 0 0 900 700 SLOT_4 0;
#X obj 50 50 r \$0-paramcfg-4;
#X obj 50 80 unpack s f f f;
#X obj 50 120 s \$0-pname4;
#X obj 150 120 f;
#X obj 220 120 f;
#X obj 290 120 f;
#X obj 400 50 r \$0-slider4;
#X obj 400 80 t f f;
#X obj 400 120 expr $f1 * ($f3 - $f2) + $f2;
#X obj 400 160 s \$0-nbx4;
#X obj 400 200 pack s f;
#X obj 400 240 list prepend \$2;
#X obj 400 270 list prepend \$1;
#X obj 400 300 list prepend /brahma/module/set;
#X obj 400 330 s to_sc;
#X obj 50 160 t s b;
#X msg 120 190 label \$1;
#X obj 120 220 s \$0-label4;
#X obj 50 250 expr ($f1 - $f2) / ($f3 - $f2 + 0.0001);
#X obj 50 280 s \$0-slider4;
#X obj 50 200 r \$0-pname4;
#X connect 0 0 1 0;
#X connect 1 0 15 0;
#X connect 1 1 5 0;
#X connect 1 1 18 0;
#X connect 1 2 3 0;
#X connect 1 2 8 1;
#X connect 1 3 4 0;
#X connect 1 3 8 2;
#X connect 6 0 7 0;
#X connect 7 0 8 0;
#X connect 7 1 9 0;
#X connect 8 0 10 1;
#X connect 10 0 11 0;
#X connect 11 0 12 0;
#X connect 12 0 13 0;
#X connect 13 0 14 0;
#X connect 15 0 2 0;
#X connect 15 1 16 0;
#X connect 16 0 17 0;
#X connect 18 0 19 0;
#X connect 20 0 10 0;
#X restore 400 220 pd SLOT_4;
#N canvas 0 0 900 700 SLOT_5 0;
#X obj 50 50 r \$0-paramcfg-5;
#X obj 50 80 unpack s f f f;
#X obj 50 120 s \$0-pname5;
#X obj 150 120 f;
#X obj 220 120 f;
#X obj 290 120 f;
#X obj 400 50 r \$0-slider5;
#X obj 400 80 t f f;
#X obj 400 120 expr $f1 * ($f3 - $f2) + $f2;
#X obj 400 160 s \$0-nbx5;
#X obj 400 200 pack s f;
#X obj 400 240 list prepend \$2;
#X obj 400 270 list prepend \$1;
#X obj 400 300 list prepend /brahma/module/set;
#X obj 400 330 s to_sc;
#X obj 50 160 t s b;
#X msg 120 190 label \$1;
#X obj 120 220 s \$0-label5;
#X obj 50 250 expr ($f1 - $f2) / ($f3 - $f2 + 0.0001);
#X obj 50 280 s \$0-slider5;
#X obj 50 200 r \$0-pname5;
#X connect 0 0 1 0;
#X connect 1 0 15 0;
#X connect 1 1 5 0;
#X connect 1 1 18 0;
#X connect 1 2 3 0;
#X connect 1 2 8 1;
#X connect 1 3 4 0;
#X connect 1 3 8 2;
#X connect 6 0 7 0;
#X connect 7 0 8 0;
#X connect 7 1 9 0;
#X connect 8 0 10 1;
#X connect 10 0 11 0;
#X connect 11 0 12 0;
#X connect 12 0 13 0;
#X connect 13 0 14 0;
#X connect 15 0 2 0;
#X connect 15 1 16 0;
#X connect 16 0 17 0;
#X connect 18 0 19 0;
#X connect 20 0 10 0;
#X restore 400 250 pd SLOT_5;
#N canvas 0 0 900 700 SLOT_6 0;
#X obj 50 50 r \$0-paramcfg-6;
#X obj 50 80 unpack s f f f;
#X obj 50 120 s \$0-pname6;
#X obj 150 120 f;
#X obj 220 120 f;
#X obj 290 120 f;
#X obj 400 50 r \$0-slider6;
#X obj 400 80 t f f;
#X obj 400 120 expr $f1 * ($f3 - $f2) + $f2;
#X obj 400 160 s \$0-nbx6;
#X obj 400 200 pack s f;
#X obj 400 240 list prepend \$2;
#X obj 400 270 list prepend \$1;
#X obj 400 300 list prepend /brahma/module/set;
#X obj 400 330 s to_sc;
#X obj 50 160 t s b;
#X msg 120 190 label \$1;
#X obj 120 220 s \$0-label6;
#X obj 50 250 expr ($f1 - $f2) / ($f3 - $f2 + 0.0001);
#X obj 50 280 s \$0-slider6;
#X obj 50 200 r \$0-pname6;
#X connect 0 0 1 0;
#X connect 1 0 15 0;
#X connect 1 1 5 0;
#X connect 1 1 18 0;
#X connect 1 2 3 0;
#X connect 1 2 8 1;
#X connect 1 3 4 0;
#X connect 1 3 8 2;
#X connect 6 0 7 0;
#X connect 7 0 8 0;
#X connect 7 1 9 0;
#X connect 8 0 10 1;
#X connect 10 0 11 0;
#X connect 11 0 12 0;
#X connect 12 0 13 0;
#X connect 13 0 14 0;
#X connect 15 0 2 0;
#X connect 15 1 16 0;
#X connect 16 0 17 0;
#X connect 18 0 19 0;
#X connect 20 0 10 0;
#X restore 400 280 pd SLOT_6;
#N canvas 0 0 900 700 SLOT_7 0;
#X obj 50 50 r \$0-paramcfg-7;
#X obj 50 80 unpack s f f f;
#X obj 50 120 s \$0-pname7;
#X obj 150 120 f;
#X obj 220 120 f;
#X obj 290 120 f;
#X obj 400 50 r \$0-slider7;
#X obj 400 80 t f f;
#X obj 400 120 expr $f1 * ($f3 - $f2) + $f2;
#X obj 400 160 s \$0-nbx7;
#X obj 400 200 pack s f;
#X obj 400 240 list prepend \$2;
#X obj 400 270 list prepend \$1;
#X obj 400 300 list prepend /brahma/module/set;
#X obj 400 330 s to_sc;
#X obj 50 160 t s b;
#X msg 120 190 label \$1;
#X obj 120 220 s \$0-label7;
#X obj 50 250 expr ($f1 - $f2) / ($f3 - $f2 + 0.0001);
#X obj 50 280 s \$0-slider7;
#X obj 50 200 r \$0-pname7;
#X connect 0 0 1 0;
#X connect 1 0 15 0;
#X connect 1 1 5 0;
#X connect 1 1 18 0;
#X connect 1 2 3 0;
#X connect 1 2 8 1;
#X connect 1 3 4 0;
#X connect 1 3 8 2;
#X connect 6 0 7 0;
#X connect 7 0 8 0;
#X connect 7 1 9 0;
#X connect 8 0 10 1;
#X connect 10 0 11 0;
#X connect 11 0 12 0;
#X connect 12 0 13 0;
#X connect 13 0 14 0;
#X connect 15 0 2 0;
#X connect 15 1 16 0;
#X connect 16 0 17 0;
#X connect 18 0 19 0;
#X connect 20 0 10 0;
#X restore 400 310 pd SLOT_7;
#N canvas 0 0 900 700 SLOT_8 0;
#X obj 50 50 r \$0-paramcfg-8;
#X obj 50 80 unpack s f f f;
#X obj 50 120 s \$0-pname8;
#X obj 150 120 f;
#X obj 220 120 f;
#X obj 290 120 f;
#X obj 400 50 r \$0-slider8;
#X obj 400 80 t f f;
#X obj 400 120 expr $f1 * ($f3 - $f2) + $f2;
#X obj 400 160 s \$0-nbx8;
#X obj 400 200 pack s f;
#X obj 400 240 list prepend \$2;
#X obj 400 270 list prepend \$1;
#X obj 400 300 list prepend /brahma/module/set;
#X obj 400 330 s to_sc;
#X obj 50 160 t s b;
#X msg 120 190 label \$1;
#X obj 120 220 s \$0-label8;
#X obj 50 250 expr ($f1 - $f2) / ($f3 - $f2 + 0.0001);
#X obj 50 280 s \$0-slider8;
#X obj 50 200 r \$0-pname8;
#X connect 0 0 1 0;
#X connect 1 0 15 0;
#X connect 1 1 5 0;
#X connect 1 1 18 0;
#X connect 1 2 3 0;
#X connect 1 2 8 1;
#X connect 1 3 4 0;
#X connect 1 3 8 2;
#X connect 6 0 7 0;
#X connect 7 0 8 0;
#X connect 7 1 9 0;
#X connect 8 0 10 1;
#X connect 10 0 11 0;
#X connect 11 0 12 0;
#X connect 12 0 13 0;
#X connect 13 0 14 0;
#X connect 15 0 2 0;
#X connect 15 1 16 0;
#X connect 16 0 17 0;
#X connect 18 0 19 0;
#X connect 20 0 10 0;
#X restore 400 340 pd SLOT_8;
#N canvas 0 0 900 700 SLOT_9 0;
#X obj 50 50 r \$0-paramcfg-9;
#X obj 50 80 unpack s f f f;
#X obj 50 120 s \$0-pname9;
#X obj 150 120 f;
#X obj 220 120 f;
#X obj 290 120 f;
#X obj 400 50 r \$0-slider9;
#X obj 400 80 t f f;
#X obj 400 120 expr $f1 * ($f3 - $f2) + $f2;
#X obj 400 160 s \$0-nbx9;
#X obj 400 200 pack s f;
#X obj 400 240 list prepend \$2;
#X obj 400 270 list prepend \$1;
#X obj 400 300 list prepend /brahma/module/set;
#X obj 400 330 s to_sc;
#X obj 50 160 t s b;
#X msg 120 190 label \$1;
#X obj 120 220 s \$0-label9;
#X obj 50 250 expr ($f1 - $f2) / ($f3 - $f2 + 0.0001);
#X obj 50 280 s \$0-slider9;
#X obj 50 200 r \$0-pname9;
#X connect 0 0 1 0;
#X connect 1 0 15 0;
#X connect 1 1 5 0;
#X connect 1 1 18 0;
#X connect 1 2 3 0;
#X connect 1 2 8 1;
#X connect 1 3 4 0;
#X connect 1 3 8 2;
#X connect 6 0 7 0;
#X connect 7 0 8 0;
#X connect 7 1 9 0;
#X connect 8 0 10 1;
#X connect 10 0 11 0;
#X connect 11 0 12 0;
#X connect 12 0 13 0;
#X connect 13 0 14 0;
#X connect 15 0 2 0;
#X connect 15 1 16 0;
#X connect 16 0 17 0;
#X connect 18 0 19 0;
#X connect 20 0 10 0;
#X restore 400 370 pd SLOT_9;
#N canvas 0 0 900 700 SLOT_10 0;
#X obj 50 50 r \$0-paramcfg-10;
#X obj 50 80 unpack s f f f;
#X obj 50 120 s \$0-pname10;
#X obj 150 120 f;
#X obj 220 120 f;
#X obj 290 120 f;
#X obj 400 50 r \$0-slider10;
#X obj 400 80 t f f;
#X obj 400 120 expr $f1 * ($f3 - $f2) + $f2;
#X obj 400 160 s \$0-nbx10;
#X obj 400 200 pack s f;
#X obj 400 240 list prepend \$2;
#X obj 400 270 list prepend \$1;
#X obj 400 300 list prepend /brahma/module/set;
#X obj 400 330 s to_sc;
#X obj 50 160 t s b;
#X msg 120 190 label \$1;
#X obj 120 220 s \$0-label10;
#X obj 50 250 expr ($f1 - $f2) / ($f3 - $f2 + 0.0001);
#X obj 50 280 s \$0-slider10;
#X obj 50 200 r \$0-pname10;
#X connect 0 0 1 0;
#X connect 1 0 15 0;
#X connect 1 1 5 0;
#X connect 1 1 18 0;
#X connect 1 2 3 0;
#X connect 1 2 8 1;
#X connect 1 3 4 0;
#X connect 1 3 8 2;
#X connect 6 0 7 0;
#X connect 7 0 8 0;
#X connect 7 1 9 0;
#X connect 8 0 10 1;
#X connect 10 0 11 0;
#X connect 11 0 12 0;
#X connect 12 0 13 0;
#X connect 13 0 14 0;
#X connect 15 0 2 0;
#X connect 15 1 16 0;
#X connect 16 0 17 0;
#X connect 18 0 19 0;
#X connect 20 0 10 0;
#X restore 400 400 pd SLOT_10;
#N canvas 0 0 900 700 SLOT_11 0;
#X obj 50 50 r \$0-paramcfg-11;
#X obj 50 80 unpack s f f f;
#X obj 50 120 s \$0-pname11;
#X obj 150 120 f;
#X obj 220 120 f;
#X obj 290 120 f;
#X obj 400 50 r \$0-slider11;
#X obj 400 80 t f f;
#X obj 400 120 expr $f1 * ($f3 - $f2) + $f2;
#X obj 400 160 s \$0-nbx11;
#X obj 400 200 pack s f;
#X obj 400 240 list prepend \$2;
#X obj 400 270 list prepend \$1;
#X obj 400 300 list prepend /brahma/module/set;
#X obj 400 330 s to_sc;
#X obj 50 160 t s b;
#X msg 120 190 label \$1;
#X obj 120 220 s \$0-label11;
#X obj 50 250 expr ($f1 - $f2) / ($f3 - $f2 + 0.0001);
#X obj 50 280 s \$0-slider11;
#X obj 50 200 r \$0-pname11;
#X connect 0 0 1 0;
#X connect 1 0 15 0;
#X connect 1 1 5 0;
#X connect 1 1 18 0;
#X connect 1 2 3 0;
#X connect 1 2 8 1;
#X connect 1 3 4 0;
#X connect 1 3 8 2;
#X connect 6 0 7 0;
#X connect 7 0 8 0;
#X connect 7 1 9 0;
#X connect 8 0 10 1;
#X connect 10 0 11 0;
#X connect 11 0 12 0;
#X connect 12 0 13 0;
#X connect 13 0 14 0;
#X connect 15 0 2 0;
#X connect 15 1 16 0;
#X connect 16 0 17 0;
#X connect 18 0 19 0;
#X connect 20 0 10 0;
#X restore 400 430 pd SLOT_11;
#N canvas 0 0 900 700 SLOT_12 0;
#X obj 50 50 r \$0-paramcfg-12;
#X obj 50 80 unpack s f f f;
#X obj 50 120 s \$0-pname12;
#X obj 150 120 f;
#X obj 220 120 f;
#X obj 290 120 f;
#X obj 400 50 r \$0-slider12;
#X obj 400 80 t f f;
#X obj 400 120 expr $f1 * ($f3 - $f2) + $f2;
#X obj 400 160 s \$0-nbx12;
#X obj 400 200 pack s f;
#X obj 400 240 list prepend \$2;
#X obj 400 270 list prepend \$1;
#X obj 400 300 list prepend /brahma/module/set;
#X obj 400 330 s to_sc;
#X obj 50 160 t s b;
#X msg 120 190 label \$1;
#X obj 120 220 s \$0-label12;
#X obj 50 250 expr ($f1 - $f2) / ($f3 - $f2 + 0.0001);
#X obj 50 280 s \$0-slider12;
#X obj 50 200 r \$0-pname12;
#X connect 0 0 1 0;
#X connect 1 0 15 0;
#X connect 1 1 5 0;
#X connect 1 1 18 0;
#X connect 1 2 3 0;
#X connect 1 2 8 1;
#X connect 1 3 4 0;
#X connect 1 3 8 2;
#X connect 6 0 7 0;
#X connect 7 0 8 0;
#X connect 7 1 9 0;
#X connect 8 0 10 1;
#X connect 10 0 11 0;
#X connect 11 0 12 0;
#X connect 12 0 13 0;
#X connect 13 0 14 0;
#X connect 15 0 2 0;
#X connect 15 1 16 0;
#X connect 16 0 17 0;
#X connect 18 0 19 0;
#X connect 20 0 10 0;
#X restore 400 460 pd SLOT_12;
#N canvas 0 0 900 700 SLOT_13 0;
#X obj 50 50 r \$0-paramcfg-13;
#X obj 50 80 unpack s f f f;
#X obj 50 120 s \$0-pname13;
#X obj 150 120 f;
#X obj 220 120 f;
#X obj 290 120 f;
#X obj 400 50 r \$0-slider13;
#X obj 400 80 t f f;
#X obj 400 120 expr $f1 * ($f3 - $f2) + $f2;
#X obj 400 160 s \$0-nbx13;
#X obj 400 200 pack s f;
#X obj 400 240 list prepend \$2;
#X obj 400 270 list prepend \$1;
#X obj 400 300 list prepend /brahma/module/set;
#X obj 400 330 s to_sc;
#X obj 50 160 t s b;
#X msg 120 190 label \$1;
#X obj 120 220 s \$0-label13;
#X obj 50 250 expr ($f1 - $f2) / ($f3 - $f2 + 0.0001);
#X obj 50 280 s \$0-slider13;
#X obj 50 200 r \$0-pname13;
#X connect 0 0 1 0;
#X connect 1 0 15 0;
#X connect 1 1 5 0;
#X connect 1 1 18 0;
#X connect 1 2 3 0;
#X connect 1 2 8 1;
#X connect 1 3 4 0;
#X connect 1 3 8 2;
#X connect 6 0 7 0;
#X connect 7 0 8 0;
#X connect 7 1 9 0;
#X connect 8 0 10 1;
#X connect 10 0 11 0;
#X connect 11 0 12 0;
#X connect 12 0 13 0;
#X connect 13 0 14 0;
#X connect 15 0 2 0;
#X connect 15 1 16 0;
#X connect 16 0 17 0;
#X connect 18 0 19 0;
#X connect 20 0 10 0;
#X restore 400 490 pd SLOT_13;
#N canvas 0 0 900 700 SLOT_14 0;
#X obj 50 50 r \$0-paramcfg-14;
#X obj 50 80 unpack s f f f;
#X obj 50 120 s \$0-pname14;
#X obj 150 120 f;
#X obj 220 120 f;
#X obj 290 120 f;
#X obj 400 50 r \$0-slider14;
#X obj 400 80 t f f;
#X obj 400 120 expr $f1 * ($f3 - $f2) + $f2;
#X obj 400 160 s \$0-nbx14;
#X obj 400 200 pack s f;
#X obj 400 240 list prepend \$2;
#X obj 400 270 list prepend \$1;
#X obj 400 300 list prepend /brahma/module/set;
#X obj 400 330 s to_sc;
#X obj 50 160 t s b;
#X msg 120 190 label \$1;
#X obj 120 220 s \$0-label14;
#X obj 50 250 expr ($f1 - $f2) / ($f3 - $f2 + 0.0001);
#X obj 50 280 s \$0-slider14;
#X obj 50 200 r \$0-pname14;
#X connect 0 0 1 0;
#X connect 1 0 15 0;
#X connect 1 1 5 0;
#X connect 1 1 18 0;
#X connect 1 2 3 0;
#X connect 1 2 8 1;
#X connect 1 3 4 0;
#X connect 1 3 8 2;
#X connect 6 0 7 0;
#X connect 7 0 8 0;
#X connect 7 1 9 0;
#X connect 8 0 10 1;
#X connect 10 0 11 0;
#X connect 11 0 12 0;
#X connect 12 0 13 0;
#X connect 13 0 14 0;
#X connect 15 0 2 0;
#X connect 15 1 16 0;
#X connect 16 0 17 0;
#X connect 18 0 19 0;
#X connect 20 0 10 0;
#X restore 400 520 pd SLOT_14;
#N canvas 0 0 900 700 SLOT_15 0;
#X obj 50 50 r \$0-paramcfg-15;
#X obj 50 80 unpack s f f f;
#X obj 50 120 s \$0-pname15;
#X obj 150 120 f;
#X obj 220 120 f;
#X obj 290 120 f;
#X obj 400 50 r \$0-slider15;
#X obj 400 80 t f f;
#X obj 400 120 expr $f1 * ($f3 - $f2) + $f2;
#X obj 400 160 s \$0-nbx15;
#X obj 400 200 pack s f;
#X obj 400 240 list prepend \$2;
#X obj 400 270 list prepend \$1;
#X obj 400 300 list prepend /brahma/module/set;
#X obj 400 330 s to_sc;
#X obj 50 160 t s b;
#X msg 120 190 label \$1;
#X obj 120 220 s \$0-label15;
#X obj 50 250 expr ($f1 - $f2) / ($f3 - $f2 + 0.0001);
#X obj 50 280 s \$0-slider15;
#X obj 50 200 r \$0-pname15;
#X connect 0 0 1 0;
#X connect 1 0 15 0;
#X connect 1 1 5 0;
#X connect 1 1 18 0;
#X connect 1 2 3 0;
#X connect 1 2 8 1;
#X connect 1 3 4 0;
#X connect 1 3 8 2;
#X connect 6 0 7 0;
#X connect 7 0 8 0;
#X connect 7 1 9 0;
#X connect 8 0 10 1;
#X connect 10 0 11 0;
#X connect 11 0 12 0;
#X connect 12 0 13 0;
#X connect 13 0 14 0;
#X connect 15 0 2 0;
#X connect 15 1 16 0;
#X connect 16 0 17 0;
#X connect 18 0 19 0;
#X connect 20 0 10 0;
#X restore 400 550 pd SLOT_15;
#X obj 0 48 cnv 12 120 14 empty \$0-label0 --- 2 9 0 10 -4034 -66577 0;
#X obj 125 48 hsl 100 15 0 1 0 0 \$0-slider0 \$0-slider0 empty -2 -8 0 10 -262144 -1 -1 0 1;
#X obj 228 48 nbx 4 14 -1e+37 1e+37 0 0 \$0-nbx0 \$0-nbx0 empty 0 -8 0 10 -262144 -1 -1 0 256;
#X obj 0 68 cnv 12 120 14 empty \$0-label1 --- 2 9 0 10 -4034 -66577 0;
#X obj 125 68 hsl 100 15 0 1 0 0 \$0-slider1 \$0-slider1 empty -2 -8 0 10 -262144 -1 -1 0 1;
#X obj 228 68 nbx 4 14 -1e+37 1e+37 0 0 \$0-nbx1 \$0-nbx1 empty 0 -8 0 10 -262144 -1 -1 0 256;
#X obj 0 88 cnv 12 120 14 empty \$0-label2 --- 2 9 0 10 -4034 -66577 0;
#X obj 125 88 hsl 100 15 0 1 0 0 \$0-slider2 \$0-slider2 empty -2 -8 0 10 -262144 -1 -1 0 1;
#X obj 228 88 nbx 4 14 -1e+37 1e+37 0 0 \$0-nbx2 \$0-nbx2 empty 0 -8 0 10 -262144 -1 -1 0 256;
#X obj 0 108 cnv 12 120 14 empty \$0-label3 --- 2 9 0 10 -4034 -66577 0;
#X obj 125 108 hsl 100 15 0 1 0 0 \$0-slider3 \$0-slider3 empty -2 -8 0 10 -262144 -1 -1 0 1;
#X obj 228 108 nbx 4 14 -1e+37 1e+37 0 0 \$0-nbx3 \$0-nbx3 empty 0 -8 0 10 -262144 -1 -1 0 256;
#X obj 0 128 cnv 12 120 14 empty \$0-label4 --- 2 9 0 10 -4034 -66577 0;
#X obj 125 128 hsl 100 15 0 1 0 0 \$0-slider4 \$0-slider4 empty -2 -8 0 10 -262144 -1 -1 0 1;
#X obj 228 128 nbx 4 14 -1e+37 1e+37 0 0 \$0-nbx4 \$0-nbx4 empty 0 -8 0 10 -262144 -1 -1 0 256;
#X obj 0 148 cnv 12 120 14 empty \$0-label5 --- 2 9 0 10 -4034 -66577 0;
#X obj 125 148 hsl 100 15 0 1 0 0 \$0-slider5 \$0-slider5 empty -2 -8 0 10 -262144 -1 -1 0 1;
#X obj 228 148 nbx 4 14 -1e+37 1e+37 0 0 \$0-nbx5 \$0-nbx5 empty 0 -8 0 10 -262144 -1 -1 0 256;
#X obj 0 168 cnv 12 120 14 empty \$0-label6 --- 2 9 0 10 -4034 -66577 0;
#X obj 125 168 hsl 100 15 0 1 0 0 \$0-slider6 \$0-slider6 empty -2 -8 0 10 -262144 -1 -1 0 1;
#X obj 228 168 nbx 4 14 -1e+37 1e+37 0 0 \$0-nbx6 \$0-nbx6 empty 0 -8 0 10 -262144 -1 -1 0 256;
#X obj 0 188 cnv 12 120 14 empty \$0-label7 --- 2 9 0 10 -4034 -66577 0;
#X obj 125 188 hsl 100 15 0 1 0 0 \$0-slider7 \$0-slider7 empty -2 -8 0 10 -262144 -1 -1 0 1;
#X obj 228 188 nbx 4 14 -1e+37 1e+37 0 0 \$0-nbx7 \$0-nbx7 empty 0 -8 0 10 -262144 -1 -1 0 256;
#X obj 0 208 cnv 12 120 14 empty \$0-label8 --- 2 9 0 10 -4034 -66577 0;
#X obj 125 208 hsl 100 15 0 1 0 0 \$0-slider8 \$0-slider8 empty -2 -8 0 10 -262144 -1 -1 0 1;
#X obj 228 208 nbx 4 14 -1e+37 1e+37 0 0 \$0-nbx8 \$0-nbx8 empty 0 -8 0 10 -262144 -1 -1 0 256;
#X obj 0 228 cnv 12 120 14 empty \$0-label9 --- 2 9 0 10 -4034 -66577 0;
#X obj 125 228 hsl 100 15 0 1 0 0 \$0-slider9 \$0-slider9 empty -2 -8 0 10 -262144 -1 -1 0 1;
#X obj 228 228 nbx 4 14 -1e+37 1e+37 0 0 \$0-nbx9 \$0-nbx9 empty 0 -8 0 10 -262144 -1 -1 0 256;
#X obj 0 248 cnv 12 120 14 empty \$0-label10 --- 2 9 0 10 -4034 -66577 0;
#X obj 125 248 hsl 100 15 0 1 0 0 \$0-slider10 \$0-slider10 empty -2 -8 0 10 -262144 -1 -1 0 1;
#X obj 228 248 nbx 4 14 -1e+37 1e+37 0 0 \$0-nbx10 \$0-nbx10 empty 0 -8 0 10 -262144 -1 -1 0 256;
#X obj 0 268 cnv 12 120 14 empty \$0-label11 --- 2 9 0 10 -4034 -66577 0;
#X obj 125 268 hsl 100 15 0 1 0 0 \$0-slider11 \$0-slider11 empty -2 -8 0 10 -262144 -1 -1 0 1;
#X obj 228 268 nbx 4 14 -1e+37 1e+37 0 0 \$0-nbx11 \$0-nbx11 empty 0 -8 0 10 -262144 -1 -1 0 256;
#X obj 0 288 cnv 12 120 14 empty \$0-label12 --- 2 9 0 10 -4034 -66577 0;
#X obj 125 288 hsl 100 15 0 1 0 0 \$0-slider12 \$0-slider12 empty -2 -8 0 10 -262144 -1 -1 0 1;
#X obj 228 288 nbx 4 14 -1e+37 1e+37 0 0 \$0-nbx12 \$0-nbx12 empty 0 -8 0 10 -262144 -1 -1 0 256;
#X obj 0 308 cnv 12 120 14 empty \$0-label13 --- 2 9 0 10 -4034 -66577 0;
#X obj 125 308 hsl 100 15 0 1 0 0 \$0-slider13 \$0-slider13 empty -2 -8 0 10 -262144 -1 -1 0 1;
#X obj 228 308 nbx 4 14 -1e+37 1e+37 0 0 \$0-nbx13 \$0-nbx13 empty 0 -8 0 10 -262144 -1 -1 0 256;
#X obj 0 328 cnv 12 120 14 empty \$0-label14 --- 2 9 0 10 -4034 -66577 0;
#X obj 125 328 hsl 100 15 0 1 0 0 \$0-slider14 \$0-slider14 empty -2 -8 0 10 -262144 -1 -1 0 1;
#X obj 228 328 nbx 4 14 -1e+37 1e+37 0 0 \$0-nbx14 \$0-nbx14 empty 0 -8 0 10 -262144 -1 -1 0 256;
#X obj 0 348 cnv 12 120 14 empty \$0-label15 --- 2 9 0 10 -4034 -66577 0;
#X obj 125 348 hsl 100 15 0 1 0 0 \$0-slider15 \$0-slider15 empty -2 -8 0 10 -262144 -1 -1 0 1;
#X obj 228 348 nbx 4 14 -1e+37 1e+37 0 0 \$0-nbx15 \$0-nbx15 empty 0 -8 0 10 -262144 -1 -1 0 256;
#X obj 0 370 tgl 15 0 \$0-bypass empty bypass 18 7 0 10 -262144 -1 -1 0 1;
#X obj 200 370 bng 20 250 50 0 \$0-free empty FREE 0 10 0 12 -258113 -1 -1;
#N canvas 0 0 450 300 FREE_LOGIC 0;
#X obj 50 50 r \$0-free;
#X msg 50 100 \; to_sc /brahma/module/free \$1 \$2;
#X connect 0 0 1 0;
#X restore 400 580 pd FREE_LOGIC;
#N canvas 0 0 600 400 PARAM_DISPATCH 0;
#X obj 50 30 r pd_registry_msg;
#X obj 50 60 list trim;
#X obj 50 90 route /pd/registry/param /pd/registry/params/done;
#X obj 50 130 list trim;
#X obj 50 160 route \$1;
#X obj 50 200 unpack f s f f f;
#X obj 50 240 t f;
#X obj 120 240 t s;
#X obj 190 240 t f;
#X obj 260 240 t f;
#X obj 330 240 t f;
#X obj 50 280 sel 0 1 2 3 4 5 6 7 8 9 10 11 12 13 14 15;
#X msg 50 340 \; \$0-paramcfg-0 \$2 \$3 \$4 \$5;
#X msg 90 340 \; \$0-paramcfg-1 \$2 \$3 \$4 \$5;
#X msg 130 340 \; \$0-paramcfg-2 \$2 \$3 \$4 \$5;
#X msg 170 340 \; \$0-paramcfg-3 \$2 \$3 \$4 \$5;
#X msg 210 340 \; \$0-paramcfg-4 \$2 \$3 \$4 \$5;
#X msg 250 340 \; \$0-paramcfg-5 \$2 \$3 \$4 \$5;
#X msg 290 340 \; \$0-paramcfg-6 \$2 \$3 \$4 \$5;
#X msg 330 340 \; \$0-paramcfg-7 \$2 \$3 \$4 \$5;
#X msg 370 340 \; \$0-paramcfg-8 \$2 \$3 \$4 \$5;
#X msg 410 340 \; \$0-paramcfg-9 \$2 \$3 \$4 \$5;
#X msg 450 340 \; \$0-paramcfg-10 \$2 \$3 \$4 \$5;
#X msg 490 340 \; \$0-paramcfg-11 \$2 \$3 \$4 \$5;
#X msg 530 340 \; \$0-paramcfg-12 \$2 \$3 \$4 \$5;
#X msg 570 340 \; \$0-paramcfg-13 \$2 \$3 \$4 \$5;
#X msg 610 340 \; \$0-paramcfg-14 \$2 \$3 \$4 \$5;
#X msg 650 340 \; \$0-paramcfg-15 \$2 \$3 \$4 \$5;
#X obj 50 300 pack f s f f f;
#X connect 0 0 1 0;
#X connect 1 0 2 0;
#X connect 2 0 3 0;
#X connect 3 0 4 0;
#X connect 4 0 5 0;
#X connect 5 0 6 0;
#X connect 5 1 7 0;
#X connect 5 2 8 0;
#X connect 5 3 9 0;
#X connect 5 4 10 0;
#X connect 6 0 28 0;
#X connect 6 0 11 0;
#X connect 7 0 28 1;
#X connect 8 0 28 2;
#X connect 9 0 28 3;
#X connect 10 0 28 4;
#X connect 11 0 12 0;
#X connect 11 1 13 0;
#X connect 11 2 14 0;
#X connect 11 3 15 0;
#X connect 11 4 16 0;
#X connect 11 5 17 0;
#X connect 11 6 18 0;
#X connect 11 7 19 0;
#X connect 11 8 20 0;
#X connect 11 9 21 0;
#X connect 11 10 22 0;
#X connect 11 11 23 0;
#X connect 11 12 24 0;
#X connect 11 13 25 0;
#X connect 11 14 26 0;
#X connect 11 15 27 0;
#X restore 400 610 pd PARAM_DISPATCH;
#N canvas 0 0 450 300 BYPASS_LOGIC 0;
#X obj 50 50 r \$0-bypass;
#X obj 50 80 sel 1 0;
#X msg 50 120 \; to_sc /brahma/module/set \$1 \$2 bypass 1;
#X msg 180 120 \; to_sc /brahma/module/set \$1 \$2 bypass 0;
#X connect 0 0 1 0;
#X connect 1 0 2 0;
#X connect 1 1 3 0;
#X restore 400 640 pd BYPASS_LOGIC;
#X coords 0 0 1 1 250 390 2 0 0;
