#N canvas 0 0 700 900 10;
#X obj 0 0 cnv 15 250 22 empty empty MODULE-PALETTE 4 11 0 14 -233017 -66577 0;
#X obj 0 24 bng 20 250 50 0 \$0-load empty LOAD 24 10 0 10 -258113 -1 -1;
#X obj 30 24 cnv 12 60 18 empty \$0-count 0 2 9 0 10 -4034 -66577 0;
#X obj 100 24 cnv 12 30 18 empty empty ALL 2 9 0 10 -258113 -66577 0;
#X obj 135 24 cnv 12 30 18 empty empty ENG 2 9 0 10 -4034 -66577 0;
#X obj 170 24 cnv 12 24 18 empty empty FX 2 9 0 10 -4034 -66577 0;
#X obj 198 24 cnv 12 30 18 empty empty MOD 2 9 0 10 -4034 -66577 0;
#X obj 0 46 cnv 12 250 302 empty empty empty 0 -8 0 10 -4034 -1 0;
#X obj 2 48 cnv 10 246 14 empty \$0-line0 empty 2 9 0 9 -4034 -66577 0;
#X obj 2 63 cnv 10 246 14 empty \$0-line1 empty 2 9 0 9 -4034 -66577 0;
#X obj 2 78 cnv 10 246 14 empty \$0-line2 empty 2 9 0 9 -4034 -66577 0;
#X obj 2 93 cnv 10 246 14 empty \$0-line3 empty 2 9 0 9 -4034 -66577 0;
#X obj 2 108 cnv 10 246 14 empty \$0-line4 empty 2 9 0 9 -4034 -66577 0;
#X obj 2 123 cnv 10 246 14 empty \$0-line5 empty 2 9 0 9 -4034 -66577 0;
#X obj 2 138 cnv 10 246 14 empty \$0-line6 empty 2 9 0 9 -4034 -66577 0;
#X obj 2 153 cnv 10 246 14 empty \$0-line7 empty 2 9 0 9 -4034 -66577 0;
#X obj 2 168 cnv 10 246 14 empty \$0-line8 empty 2 9 0 9 -4034 -66577 0;
#X obj 2 183 cnv 10 246 14 empty \$0-line9 empty 2 9 0 9 -4034 -66577 0;
#X obj 2 198 cnv 10 246 14 empty \$0-line10 empty 2 9 0 9 -4034 -66577 0;
#X obj 2 213 cnv 10 246 14 empty \$0-line11 empty 2 9 0 9 -4034 -66577 0;
#X obj 2 228 cnv 10 246 14 empty \$0-line12 empty 2 9 0 9 -4034 -66577 0;
#X obj 2 243 cnv 10 246 14 empty \$0-line13 empty 2 9 0 9 -4034 -66577 0;
#X obj 2 258 cnv 10 246 14 empty \$0-line14 empty 2 9 0 9 -4034 -66577 0;
#X obj 2 273 cnv 10 246 14 empty \$0-line15 empty 2 9 0 9 -4034 -66577 0;
#X obj 2 288 cnv 10 246 14 empty \$0-line16 empty 2 9 0 9 -4034 -66577 0;
#X obj 2 303 cnv 10 246 14 empty \$0-line17 empty 2 9 0 9 -4034 -66577 0;
#X obj 2 318 cnv 10 246 14 empty \$0-line18 empty 2 9 0 9 -4034 -66577 0;
#X obj 2 333 cnv 10 246 14 empty \$0-line19 empty 2 9 0 9 -4034 -66577 0;
#X obj 0 350 bng 20 250 50 0 \$0-prev empty PREV 24 10 0 10 -262144 -1 -1;
#X obj 50 350 bng 20 250 50 0 \$0-next empty NEXT 24 10 0 10 -262144 -1 -1;
#X obj 120 350 cnv 12 80 18 empty \$0-pageinfo pg-0/0 2 9 0 10 -4034 -66577 0;
#N canvas 0 0 800 700 STORAGE 0;
#X text 50 30 Module data storage and filtering;
#X obj 50 60 text define \$0-modules;
#X obj 50 90 text define \$0-filtered;
#X obj 50 130 f 0;
#X obj 50 160 s \$0-pageoffset;
#X obj 50 110 loadbang;
#X connect 5 0 3 0;
#X connect 3 0 4 0;
#X restore 400 50 pd STORAGE;
#N canvas 0 0 900 700 LOAD_HANDLER 0;
#X obj 50 30 r \$0-load;
#X obj 50 60 t b b;
#X msg 50 100 clear;
#X obj 50 130 text set \$0-modules;
#X msg 180 100 \; to_sc /pd/modules/list;
#X connect 0 0 1 0;
#X connect 1 0 2 0;
#X connect 1 1 4 0;
#X connect 2 0 3 0;
#X restore 400 80 pd LOAD_HANDLER;
#N canvas 0 0 900 700 RECEIVE_HANDLER 0;
#X obj 50 30 r pd_registry_msg;
#X obj 50 60 list trim;
#X obj 50 90 route /pd/registry/module /pd/registry/done;
#X obj 50 130 list trim;
#X obj 50 160 pack s s f s;
#X obj 50 200 list;
#X obj 50 230 text insert \$0-modules;
#X obj 300 130 list trim;
#X obj 300 160 unpack f;
#X msg 300 200 label \$1;
#X obj 300 230 s \$0-count;
#X obj 300 260 t b;
#X msg 300 290 \; \$0-filter ALL;
#X connect 0 0 1 0;
#X connect 1 0 2 0;
#X connect 2 0 3 0;
#X connect 2 1 7 0;
#X connect 3 0 4 0;
#X connect 4 0 5 0;
#X connect 5 0 6 0;
#X connect 7 0 8 0;
#X connect 8 0 9 0;
#X connect 9 0 10 0;
#X connect 8 0 11 0;
#X connect 11 0 12 0;
#X restore 400 110 pd RECEIVE_HANDLER;
#N canvas 0 0 900 800 FILTER 0;
#X obj 50 30 r \$0-filter;
#X obj 50 60 t s b b;
#X msg 120 100 clear;
#X obj 120 130 text set \$0-filtered;
#X obj 50 100 symbol;
#X obj 50 180 text sequence \$0-modules;
#X obj 50 220 list split 1;
#X obj 50 260 list split 1;
#X obj 50 340 t b;
#X obj 50 370 text sequence \$0-modules;
#X obj 200 300 sel ALL;
#X obj 50 300 select 1;
#X obj 50 410 list;
#X obj 50 440 text insert \$0-filtered;
#X obj 300 440 text size \$0-filtered;
#X obj 300 470 t f b;
#X msg 300 510 \; \$0-pageoffset 0;
#X obj 300 550 s \$0-dorender;
#X obj 50 140 until;
#X obj 200 260 route;
#X connect 0 0 1 0;
#X connect 1 0 4 0;
#X connect 1 1 2 0;
#X connect 1 2 18 0;
#X connect 2 0 3 0;
#X connect 4 0 10 0;
#X connect 5 0 6 0;
#X connect 5 1 8 0;
#X connect 6 0 19 0;
#X connect 6 1 12 0;
#X connect 7 0 11 0;
#X connect 7 1 12 0;
#X connect 8 0 9 0;
#X connect 9 0 6 0;
#X connect 9 1 8 0;
#X connect 10 0 5 0;
#X connect 10 1 19 1;
#X connect 11 0 12 0;
#X connect 12 0 13 0;
#X connect 13 0 14 0;
#X connect 14 0 15 0;
#X connect 15 0 16 0;
#X connect 15 1 17 0;
#X connect 18 0 5 0;
#X connect 19 0 7 0;
#X restore 400 140 pd FILTER;
#N canvas 0 0 900 600 RENDER_PAGE 0;
#X obj 50 30 r \$0-dorender;
#X obj 50 60 t b b b;
#X obj 50 100 text size \$0-filtered;
#X obj 50 140 t f f;
#X obj 50 180 r \$0-pageoffset;
#X obj 50 210 t f f;
#X obj 50 250 f 0;
#X obj 50 280 until;
#X obj 50 310 f;
#X obj 50 340 + 1;
#X obj 50 370 t f f;
#X obj 50 410 mod 20;
#X obj 50 440 sel 0;
#X obj 120 480 text get \$0-filtered;
#X msg 120 520 label \$1;
#X obj 50 520 s \$0-dorender;
#X obj 120 560 route 0 1 2 3 4 5 6 7 8 9 10 11 12 13 14 15 16 17 18 19;
#X obj 120 600 s \$0-line0;
#X obj 155 600 s \$0-line1;
#X obj 190 600 s \$0-line2;
#X obj 225 600 s \$0-line3;
#X obj 260 600 s \$0-line4;
#X obj 295 600 s \$0-line5;
#X obj 330 600 s \$0-line6;
#X obj 365 600 s \$0-line7;
#X obj 400 600 s \$0-line8;
#X obj 435 600 s \$0-line9;
#X obj 470 600 s \$0-line10;
#X obj 505 600 s \$0-line11;
#X obj 540 600 s \$0-line12;
#X obj 575 600 s \$0-line13;
#X obj 610 600 s \$0-line14;
#X obj 645 600 s \$0-line15;
#X obj 680 600 s \$0-line16;
#X obj 715 600 s \$0-line17;
#X obj 750 600 s \$0-line18;
#X obj 785 600 s \$0-line19;
#X obj 200 100 20;
#X obj 200 130 min;
#X obj 200 160 - 0;
#X obj 200 190 max 1;
#X obj 200 220 s \$0-iterations;
#X text 50 550 Lines route to display labels;
#X obj 300 100 t f;
#X obj 300 130 / 20;
#X obj 300 160 + 1;
#X obj 300 190 pack f f;
#X msg 300 220 label pg-\$1/\$2;
#X obj 300 250 s \$0-pageinfo;
#X msg 170 100 label empty;
#X obj 170 130 s \$0-line0;
#X obj 170 155 s \$0-line1;
#X obj 170 180 s \$0-line2;
#X obj 170 205 s \$0-line3;
#X obj 170 230 s \$0-line4;
#X obj 170 255 s \$0-line5;
#X obj 170 280 s \$0-line6;
#X obj 170 305 s \$0-line7;
#X obj 170 330 s \$0-line8;
#X obj 170 355 s \$0-line9;
#X obj 170 380 s \$0-line10;
#X obj 170 405 s \$0-line11;
#X obj 170 430 s \$0-line12;
#X obj 170 455 s \$0-line13;
#X obj 170 480 s \$0-line14;
#X obj 170 505 s \$0-line15;
#X obj 170 530 s \$0-line16;
#X obj 170 555 s \$0-line17;
#X obj 170 580 s \$0-line18;
#X obj 170 605 s \$0-line19;
#X connect 0 0 1 0;
#X connect 1 0 2 0;
#X connect 1 1 48 0;
#X connect 1 2 4 0;
#X connect 2 0 3 0;
#X connect 2 0 43 0;
#X connect 3 0 38 0;
#X connect 3 1 39 0;
#X connect 4 0 5 0;
#X connect 5 0 6 0;
#X connect 5 1 13 1;
#X connect 37 0 38 1;
#X connect 38 0 39 0;
#X connect 39 0 40 0;
#X connect 40 0 41 0;
#X connect 43 0 44 0;
#X connect 44 0 45 0;
#X connect 45 0 46 0;
#X connect 46 0 47 0;
#X connect 48 0 49 0;
#X connect 48 0 50 0;
#X connect 48 0 51 0;
#X connect 48 0 52 0;
#X connect 48 0 53 0;
#X connect 48 0 54 0;
#X connect 48 0 55 0;
#X connect 48 0 56 0;
#X connect 48 0 57 0;
#X connect 48 0 58 0;
#X connect 48 0 59 0;
#X connect 48 0 60 0;
#X connect 48 0 61 0;
#X connect 48 0 62 0;
#X connect 48 0 63 0;
#X connect 48 0 64 0;
#X connect 48 0 65 0;
#X connect 48 0 66 0;
#X connect 48 0 67 0;
#X connect 48 0 68 0;
#X restore 400 170 pd RENDER_PAGE;
#N canvas 0 0 500 300 CATEGORY_BUTTONS 0;
#X obj 50 30 r \$0-cat-all;
#X obj 50 60 t b;
#X msg 50 90 \; \$0-filter ALL;
#X obj 200 30 r \$0-cat-eng;
#X obj 200 60 t b;
#X msg 200 90 \; \$0-filter engine;
#X obj 350 30 r \$0-cat-fx;
#X obj 350 60 t b;
#X msg 350 90 \; \$0-filter fx;
#X obj 50 150 r \$0-cat-mod;
#X obj 50 180 t b;
#X msg 50 210 \; \$0-filter modular;
#X connect 0 0 1 0;
#X connect 1 0 2 0;
#X connect 3 0 4 0;
#X connect 4 0 5 0;
#X connect 6 0 7 0;
#X connect 7 0 8 0;
#X connect 9 0 10 0;
#X connect 10 0 11 0;
#X restore 400 200 pd CATEGORY_BUTTONS;
#N canvas 0 0 500 400 PAGE_NAV 0;
#X obj 50 30 r \$0-prev;
#X obj 50 60 r \$0-pageoffset;
#X obj 50 90 - 20;
#X obj 50 120 max 0;
#X obj 50 150 s \$0-pageoffset;
#X obj 50 180 t b;
#X obj 50 210 s \$0-dorender;
#X obj 250 30 r \$0-next;
#X obj 250 60 r \$0-pageoffset;
#X obj 250 90 + 20;
#X obj 250 120 text size \$0-filtered;
#X obj 250 150 min;
#X obj 250 180 s \$0-pageoffset;
#X obj 250 210 t b;
#X obj 250 240 s \$0-dorender;
#X connect 0 0 1 0;
#X connect 1 0 2 0;
#X connect 2 0 3 0;
#X connect 3 0 4 0;
#X connect 3 0 5 0;
#X connect 5 0 6 0;
#X connect 7 0 8 0;
#X connect 8 0 9 0;
#X connect 9 0 10 0;
#X connect 9 0 11 0;
#X connect 10 0 11 1;
#X connect 11 0 12 0;
#X connect 11 0 13 0;
#X connect 13 0 14 0;
#X restore 400 230 pd PAGE_NAV;
#X obj 100 24 bng 15 250 50 0 \$0-cat-all empty empty 0 -8 0 10 -258113 -1 -1;
#X obj 135 24 bng 15 250 50 0 \$0-cat-eng empty empty 0 -8 0 10 -4034 -1 -1;
#X obj 170 24 bng 15 250 50 0 \$0-cat-fx empty empty 0 -8 0 10 -4034 -1 -1;
#X obj 198 24 bng 15 250 50 0 \$0-cat-mod empty empty 0 -8 0 10 -4034 -1 -1;
#X coords 0 0 1 1 250 380 2 0 0;
