#N canvas 0 0 500 300 10;
#X obj 0 0 cnv 15 200 28 empty \$0-routelabel \$1>\$2:\$3 2 11 0 10 -233017 -66577 0;
#X obj 60 0 hsl 100 15 0 1 0 0 \$0-amount \$0-amount empty -2 -8 0 10 -262144 -1 -1 8000 1;
#X obj 165 0 nbx 4 14 0 1 0 0 \$0-amtdisplay \$0-amtdisplay empty 0 -8 0 10 -262144 -1 -1 0 256;
#N canvas 0 0 500 400 CONNECT_LOGIC 0;
#X obj 50 30 loadbang;
#X obj 50 60 t b;
#X msg 50 100 \; to_sc /brahma/patch/connect \$1_out \$2_\$3 \$4;
#X obj 50 150 \$4;
#X obj 50 180 s \$0-amount;
#X connect 0 0 1 0;
#X connect 1 0 2 0;
#X connect 1 0 3 0;
#X connect 3 0 4 0;
#X restore 300 50 pd CONNECT_LOGIC;
#N canvas 0 0 500 400 AMOUNT_LOGIC 0;
#X obj 50 30 r \$0-amount;
#X obj 50 60 t f f;
#X obj 50 100 s \$0-amtdisplay;
#X msg 120 100 \; to_sc /brahma/patch/connect \$1_out \$2_\$3 $1;
#X connect 0 0 1 0;
#X connect 1 0 2 0;
#X connect 1 1 3 0;
#X restore 300 80 pd AMOUNT_LOGIC;
#N canvas 0 0 500 300 DISCONNECT_LOGIC 0;
#X obj 50 50 closebang;
#X msg 50 100 \; to_sc /brahma/patch/disconnect/named \$1_out \$2_\$3;
#X connect 0 0 1 0;
#X restore 300 110 pd DISCONNECT_LOGIC;
#X coords 0 0 1 1 200 30 2 0 0;
