#N canvas 100 100 600 400 10;
#X obj 50 50 netreceive -u -b 57121;
#X obj 50 80 oscparse;
#X obj 50 110 list trim;
#X obj 50 140 route /sc /golem /brahma /chronos /daemon /patch;
#X obj 50 230 print SC_MSG;
#X obj 130 230 print GOLEM_MSG;
#X obj 230 230 print BRAHMA_MSG;
#X obj 330 230 print CHRONOS_MSG;
#X obj 430 230 print DAEMON_MSG;
#X obj 530 230 print PATCH_MSG;
#X obj 300 50 r to_sc;
#X obj 300 80 netsend -u -b 127.0.0.1 57120;
#X text 50 20 OSC Bridge for Brahma (multi-namespace);
#X connect 0 0 1 0;
#X connect 1 0 2 0;
#X connect 2 0 3 0;
#X connect 3 0 4 0;
#X connect 3 1 5 0;
#X connect 3 2 6 0;
#X connect 3 3 7 0;
#X connect 3 4 8 0;
#X connect 3 5 9 0;
#X connect 10 0 11 0;
